# xmcd CD database file
#
# Track frame offsets:
#	150
#	25127
#	49292
#	70470
#	82962
#	99612
#	112142
#	135437
#	152377
#	168215
#	179792
#
# Disc length: 2818 seconds
#
# Revision: 4
# Processed by: cddbd v1.5.1PL2 Copyright (c) Steve Scherf et al.
# Submitted via: CDex 1.51
#
DISCID=900b000b
DTITLE=Johnny Winter - Second Winter [MFSL GOLD UDCD 753]
DYEAR=1969
DGENRE=Blues
TTITLE0=Memory Pain
TTITLE1=I'm Not Sure
TTITLE2=The Good Love
TTITLE3=Slippin' And Slidin'
TTITLE4=Miss Ann
TTITLE5=Johnny B. Goode
TTITLE6=Highway 61 Revisited
TTITLE7=I Love Everybody
TTITLE8=Hustled Down In Texas
TTITLE9=I Hate Everybody
TTITLE10=Fast Life Rider
EXTD=YEAR: 1969
EXTT0=
EXTT1=
EXTT2=
EXTT3=
EXTT4=
EXTT5=
EXTT6=
EXTT7=
EXTT8=
EXTT9=
EXTT10=
PLAYORDER=
